<svg width="21" height="21" viewBox="0 0 21 21" fill="none" xmlns="http://www.w3.org/2000/svg">
<g clip-path="url(#clip0_224_4983)">
<path d="M9.27809 8.41607V5.91016H6.78631V4.23955H9.27809V1.73364H10.9393V4.23955H13.431V5.91016H10.9393V8.41607H9.27809ZM5.95572 19.275C5.49889 19.275 5.10796 19.1116 4.78292 18.7847C4.45733 18.4573 4.29454 18.0638 4.29454 17.6044C4.29454 17.145 4.45733 16.7516 4.78292 16.4241C5.10796 16.0972 5.49889 15.9338 5.95572 15.9338C6.41255 15.9338 6.80348 16.0972 7.12852 16.4241C7.45411 16.7516 7.6169 17.145 7.6169 17.6044C7.6169 18.0638 7.45411 18.4573 7.12852 18.7847C6.80348 19.1116 6.41255 19.275 5.95572 19.275ZM14.2616 19.275C13.8048 19.275 13.4139 19.1116 13.0888 18.7847C12.7633 18.4573 12.6005 18.0638 12.6005 17.6044C12.6005 17.145 12.7633 16.7516 13.0888 16.4241C13.4139 16.0972 13.8048 15.9338 14.2616 15.9338C14.7185 15.9338 15.1097 16.0972 15.4353 16.4241C15.7603 16.7516 15.9228 17.145 15.9228 17.6044C15.9228 18.0638 15.7603 18.4573 15.4353 18.7847C15.1097 19.1116 14.7185 19.275 14.2616 19.275ZM5.95572 15.0985C5.33278 15.0985 4.85519 14.8234 4.52295 14.2732C4.19071 13.7236 4.18379 13.1773 4.50218 12.6344L5.62348 10.5879L2.63335 4.23955H0.972168V2.56895H3.69236L7.22237 10.0867H13.0573L16.2758 4.23955L17.7294 5.03309L14.5108 10.8802C14.3585 11.1586 14.1578 11.3744 13.9086 11.5276C13.6595 11.6807 13.3757 11.7573 13.0573 11.7573H6.86937L5.95572 13.4279H15.9228V15.0985H5.95572Z" fill="white"/>
</g>
<defs>
<clipPath id="clip0_224_4983">
<rect width="19.9342" height="20.0473" fill="white" transform="translate(0.141602 0.898315)"/>
</clipPath>
</defs>
</svg>
